<svg xmlns="http://www.w3.org/2000/svg" viewBox="0 0 56 68" width="56" height="68">
	<style>
		tspan { white-space:pre }
		.shp0 { fill: #84bc22 } 
	</style>
	<g id="services">
		<g id="wide">
			<path id="Clipboard Verification Symbol. Attribute as Freepik from Flaticon.com" class="shp0" d="M28.03 5.14L26.55 5.14C25.75 5.14 25.11 4.51 25.11 3.72L25.11 3.67C25.11 1.84 23.62 0.36 21.77 0.36L21.7 0.36C19.85 0.36 18.36 1.84 18.36 3.67L18.36 3.72C18.36 4.51 17.71 5.14 16.92 5.14L15.43 5.14C13.85 5.14 12.57 6.42 12.57 7.99L12.57 8.04C12.57 9.61 13.85 10.89 15.43 10.89L28.03 10.89C29.62 10.89 30.9 9.61 30.9 8.04L30.9 7.99C30.9 6.42 29.62 5.14 28.03 5.14ZM21.73 5.14C20.93 5.14 20.29 4.5 20.29 3.71C20.29 2.92 20.93 2.27 21.73 2.27C22.53 2.27 23.18 2.92 23.18 3.71C23.18 4.5 22.53 5.14 21.73 5.14ZM28.18 60.66L3.88 60.66C1.75 60.66 0.02 58.94 0.02 56.83L0.02 10.89C0.02 8.77 1.75 7.06 2.92 7.06L10.74 7.06C10.67 7.38 10.64 7.71 10.64 8.04C10.64 10.67 12.79 12.8 15.43 12.8L28.03 12.8C30.68 12.8 32.83 10.67 32.83 7.99C32.83 7.67 32.8 7.36 32.74 7.06L38.62 7.06C41.72 7.06 43.44 8.77 43.44 10.89L43.44 39.65C43.12 39.63 42.8 39.6 42.48 39.6C41.14 39.6 39.86 39.79 38.62 40.11L38.62 17.59L4.85 17.59L4.85 55.87L27.09 55.87C27.2 57.56 27.57 59.17 28.18 60.66ZM42.48 42.47C35.55 42.47 29.94 48.04 29.94 54.92C29.94 61.79 35.55 67.36 42.48 67.36C49.41 67.36 55.02 61.79 55.02 54.92C55.02 48.04 49.41 42.47 42.48 42.47ZM50.68 52.36L42.96 60.97C42.58 61.4 42.05 61.62 41.51 61.62C41.09 61.62 40.66 61.48 40.31 61.2L35.48 57.37C34.65 56.71 34.52 55.5 35.18 54.68C35.85 53.85 37.06 53.72 37.89 54.38L41.29 57.07L47.79 49.81C48.5 49.03 49.72 48.95 50.51 49.66C51.31 50.36 51.38 51.57 50.68 52.36ZM33.79 33.86L8.71 33.86C8.17 33.86 7.74 33.43 7.74 32.9L7.74 31.94C7.74 31.42 8.17 30.99 8.71 30.99L33.79 30.99C34.33 30.99 34.76 31.42 34.76 31.94L34.76 32.9C34.76 33.43 34.33 33.86 33.79 33.86ZM33.79 25.24L8.71 25.24C8.17 25.24 7.74 24.82 7.74 24.29L7.74 23.33C7.74 22.8 8.17 22.37 8.71 22.37L33.79 22.37C34.33 22.37 34.76 22.8 34.76 23.33L34.76 24.29C34.76 24.82 34.33 25.24 33.79 25.24ZM28.97 41.52L8.71 41.52C8.17 41.52 7.74 41.09 7.74 40.56L7.74 39.6C7.74 39.07 8.17 38.64 8.71 38.64L28.97 38.64C29.5 38.64 29.94 39.07 29.94 39.6L29.94 40.56C29.94 41.09 29.5 41.52 28.97 41.52ZM27.04 50.13L8.71 50.13C8.17 50.13 7.74 49.7 7.74 49.17L7.74 48.22C7.74 47.69 8.17 47.26 8.71 47.26L27.04 47.26C27.57 47.26 28.01 47.69 28.01 48.22L28.01 49.17C28.01 49.7 27.57 50.13 27.04 50.13Z" />
		</g>
	</g>
</svg>