<svg xmlns="http://www.w3.org/2000/svg" viewBox="0 0 25 25" width="25" height="25">
	<style>
		tspan { white-space:pre }
		.shp0 { opacity: 0.502;fill: #45413e } 
	</style>
	<g id="header">
		<g id="icons">
			<path id="dark-loope-icon" class="shp0" d="M15.38 1C10.61 1 6.75 4.86 6.75 9.62C6.75 11.08 7.11 12.45 7.75 13.66L1.76 19.65L1.76 19.66C1.29 20.12 1 20.75 1 21.46C1 22.86 2.14 24 3.54 24C4.24 24 4.88 23.71 5.34 23.24L5.34 23.24L11.34 17.24C12.54 17.88 13.92 18.25 15.38 18.25C20.14 18.25 24 14.39 24 9.62C24 4.86 20.14 1 15.38 1ZM4.45 22.34C4.21 22.58 3.89 22.73 3.54 22.73C2.84 22.73 2.27 22.16 2.27 21.46C2.27 21.11 2.42 20.79 2.66 20.55L2.65 20.55L8.45 14.75C8.96 15.43 9.56 16.04 10.24 16.55L4.45 22.34ZM15.38 16.81C11.41 16.81 8.19 13.59 8.19 9.63C8.19 5.66 11.41 2.44 15.38 2.44C19.34 2.44 22.56 5.66 22.56 9.63C22.56 13.59 19.34 16.81 15.38 16.81ZM15.38 4.59C12.6 4.59 10.34 6.85 10.34 9.62C10.34 9.82 10.5 9.98 10.7 9.98C10.9 9.98 11.06 9.82 11.06 9.62C11.06 7.24 12.99 5.31 15.38 5.31C15.57 5.31 15.73 5.15 15.73 4.95C15.73 4.75 15.57 4.59 15.38 4.59Z" />
		</g>
	</g>
</svg>