<svg xmlns="http://www.w3.org/2000/svg" viewBox="0 0 25 25" width="25" height="25">
	<style>
		tspan { white-space:pre }
		.shp0 { opacity: 0.502;fill: #45413e } 
	</style>
	<g id="header">
		<g id="icons">
			<path id="dark-user-icon" class="shp0" d="M12.5 16.81C16.07 16.81 18.97 13.27 18.97 8.91C18.97 4.55 16.07 1 12.5 1C10.74 1 9.1 1.84 7.87 3.38C6.68 4.86 6.03 6.82 6.03 8.91C6.03 13.27 8.93 16.81 12.5 16.81ZM12.5 2.44C15.27 2.44 17.53 5.34 17.53 8.91C17.53 12.47 15.27 15.38 12.5 15.38C9.73 15.38 7.47 12.47 7.47 8.91C7.47 5.34 9.73 2.44 12.5 2.44ZM17.53 15.38C17.13 15.38 16.81 15.7 16.81 16.09C16.81 16.49 17.13 16.81 17.53 16.81C20.31 16.81 22.56 19.07 22.56 21.84C22.56 22.24 22.24 22.56 21.84 22.56L3.16 22.56C2.76 22.56 2.44 22.24 2.44 21.84C2.44 19.07 4.7 16.81 7.47 16.81C7.87 16.81 8.19 16.49 8.19 16.09C8.19 15.7 7.87 15.38 7.47 15.38C3.9 15.38 1 18.28 1 21.84C1 23.03 1.97 24 3.16 24L21.84 24C23.03 24 24 23.03 24 21.84C24 18.28 21.1 15.38 17.53 15.38Z" />
		</g>
	</g>
</svg>