<svg xmlns="http://www.w3.org/2000/svg" viewBox="0 0 27 25" width="27" height="25">
	<style>
		tspan { white-space:pre }
		.shp0 { opacity: 0.502;fill: #45413e } 
	</style>
	<g id="header">
		<g id="icons">
			<path id="dark-shopping-icon" class="shp0" d="M21.34 2.64L24.13 22.36L1.87 22.36L4.66 2.64L21.34 2.64M22.75 1L3.25 1L0 24L26 24L22.75 1L22.75 1ZM19.5 5.93C19.5 5.02 18.77 4.29 17.88 4.29C16.98 4.29 16.25 5.02 16.25 5.93C16.25 6.49 16.55 6.96 16.97 7.26C16.58 10.21 14.92 12.5 13 12.5C11.08 12.5 9.42 10.21 9.03 7.26C9.45 6.96 9.75 6.49 9.75 5.93C9.75 5.02 9.02 4.29 8.13 4.29C7.23 4.29 6.5 5.02 6.5 5.93C6.5 6.57 6.88 7.12 7.41 7.39C7.88 11.27 10.16 14.14 13 14.14C15.84 14.14 18.12 11.27 18.59 7.39C19.12 7.12 19.5 6.57 19.5 5.93Z" />
		</g>
	</g>
</svg>