<svg xmlns="http://www.w3.org/2000/svg" viewBox="0 0 25 22" width="25" height="22">
	<style>
		tspan { white-space:pre }
		.shp0 { opacity: 0.502;fill: #45413e } 
	</style>
	<g id="header">
		<g id="icons">
			<path id="dark-hearted-icon" class="shp0" d="M18.29 0C16.73 0 15.2 0.58 14 1.64C13.24 2.31 12.8 2.58 12.5 2.58C12.2 2.58 11.76 2.31 11 1.64C9.8 0.58 8.27 0 6.71 0C3.01 0 0 3.16 0 7.04C0 9.24 0.99 10.9 1.88 12.13L7.88 19.82C8.96 21.2 10.5 22 12.09 22C13.61 22 15.06 21.29 16.15 20.02L22.91 12.14C23.88 10.91 25 9.22 25 7.04C25 3.16 21.99 0 18.29 0ZM21.68 11.02L14.95 18.88C14.17 19.79 13.15 20.3 12.09 20.3C10.97 20.3 9.92 19.74 9.13 18.74L3.15 11.08C2.44 10.09 1.62 8.73 1.62 7.05C1.62 4.1 3.9 1.7 6.71 1.7C7.89 1.7 9.05 2.14 9.96 2.94C10.93 3.79 11.65 4.28 12.5 4.28C13.35 4.28 14.07 3.79 15.04 2.94C15.95 2.14 17.11 1.7 18.29 1.7C21.1 1.7 23.38 4.1 23.38 7.04C23.38 8.66 22.51 9.98 21.68 11.02Z" />
		</g>
	</g>
</svg>