<svg xmlns="http://www.w3.org/2000/svg" viewBox="0 0 60 68" width="60" height="68">
	<style>
		tspan { white-space:pre }
		.shp0 { fill: #84bc22 } 
	</style>
	<g id="services">
		<g id="free">
			<path id="Delivery Packages On A Trolley. Attribute as Freepik from Flaticon.com" class="shp0" d="M0.8 12.01C-0.45 8.22 1.62 4.12 5.41 2.87C9.21 1.61 13.31 3.68 14.56 7.47L28.79 50.57C27.47 50.22 26.06 50.16 24.65 50.42L10.87 8.69C10.29 6.93 8.39 5.97 6.63 6.55C4.87 7.13 3.92 9.03 4.5 10.79C4.83 11.81 4.28 12.91 3.26 13.24C2.24 13.58 1.14 13.02 0.8 12.01ZM56.88 45.82L33.56 53.51C34.39 54.44 35.05 55.56 35.46 56.82C35.48 56.87 35.49 56.91 35.5 56.96L58.1 49.51C59.12 49.17 59.67 48.07 59.34 47.05C59 46.03 57.9 45.48 56.88 45.82ZM33.62 57.43C34.94 61.43 32.76 65.75 28.76 67.07C24.75 68.39 20.44 66.21 19.12 62.21C17.79 58.21 19.97 53.9 23.97 52.58C27.98 51.26 32.3 53.43 33.62 57.43ZM29.99 58.63C29.33 56.63 27.17 55.54 25.17 56.2C23.17 56.86 22.08 59.02 22.74 61.02C23.4 63.02 25.56 64.1 27.56 63.44C29.56 62.78 30.65 60.63 29.99 58.63ZM50.99 16.58L58.91 40.56C59.07 41.07 58.8 41.62 58.29 41.78L33.37 50C32.86 50.17 32.31 49.89 32.14 49.38L24.22 25.4C24.06 24.9 24.33 24.35 24.84 24.18L49.76 15.96C50.27 15.8 50.82 16.07 50.99 16.58ZM47.69 30.51L39.21 25.84L35.17 34.64L37.84 35.87L39.59 32.06L42.74 41.61L45.76 40.62L42.61 31.07L46.28 33.09L47.69 30.51ZM40.29 16.2L35.23 0.88C35.12 0.55 34.77 0.37 34.44 0.48L30.1 1.91L30.08 1.95L30.04 1.93L27.75 2.69L29.64 8.4L27.06 9.25L25.17 3.54L22.88 4.29L22.86 4.33L22.82 4.31L18.51 5.73C18.18 5.84 18.01 6.19 18.12 6.52L23.18 21.85C23.28 22.17 23.64 22.35 23.96 22.24L39.89 16.99C40.22 16.88 40.4 16.53 40.29 16.2Z" />
		</g>
	</g>
</svg>