<svg xmlns="http://www.w3.org/2000/svg" viewBox="0 0 366 367" width="366" height="367">
	<style>
		tspan { white-space:pre }
		.shp0 { opacity: 0.302;fill: #f1edea } 
	</style>
	<g id="Body">
		<path id="exclamation-stop" class="shp0" d="M265.52 7.7C261.21 3.4 255.4 1 249.3 1L116.69 1C110.62 1 104.79 3.4 100.51 7.7L6.72 101.51C2.4 105.79 0 111.6 0 117.69L0 250.35C0 256.4 2.4 262.23 6.7 266.52L100.49 360.32C104.79 364.59 110.6 367 116.69 367L249.35 367C255.4 367 261.23 364.59 265.52 360.3L359.3 266.48C363.59 262.21 366 256.4 366 250.3L366 117.69C366 111.62 363.59 105.79 359.3 101.51L265.52 7.7ZM343.13 250.3L249.3 344.12L116.69 344.12L22.88 250.3L22.88 117.69L116.69 23.87L249.35 23.87L343.13 117.69L343.13 250.3ZM183 69.62C170.38 69.62 160.12 79.88 160.12 92.5L160.12 206.87C160.12 219.5 170.38 229.75 183 229.75C195.62 229.75 205.88 219.5 205.88 206.87L205.88 92.5C205.88 79.88 195.62 69.62 183 69.62ZM160.12 275.5C160.12 288.14 170.37 298.37 183 298.37C195.64 298.37 205.88 288.14 205.88 275.5C205.88 262.86 195.64 252.62 183 252.62C170.37 252.62 160.12 262.86 160.12 275.5Z" />
	</g>
</svg>