<svg xmlns="http://www.w3.org/2000/svg" viewBox="0 0 26 23" width="26" height="23">
	<style>
		tspan { white-space:pre }
		.shp0 { opacity: 0.502;fill: #ffffff } 
	</style>
	<g id="fixed">
		<path id="hearted-icon" class="shp0" d="M18.89 0.99C17.33 0.99 15.8 1.58 14.6 2.63C13.84 3.3 13.4 3.58 13.1 3.58C12.8 3.58 12.36 3.3 11.6 2.63C10.4 1.58 8.87 0.99 7.3 0.99C3.61 0.99 0.6 4.15 0.6 8.04C0.6 10.23 1.59 11.9 2.48 13.13L8.48 20.81C9.56 22.2 11.1 22.99 12.69 22.99C14.21 22.99 15.66 22.29 16.75 21.01L23.51 13.13C24.48 11.9 25.6 10.21 25.6 8.04C25.6 4.15 22.59 0.99 18.89 0.99ZM22.28 12.02L15.55 19.87C14.76 20.79 13.75 21.29 12.69 21.29C11.57 21.29 10.52 20.74 9.73 19.73L3.75 12.07C3.04 11.08 2.22 9.73 2.22 8.04C2.22 5.09 4.5 2.7 7.3 2.7C8.49 2.7 9.65 3.14 10.56 3.94C11.52 4.79 12.25 5.28 13.1 5.28C13.95 5.28 14.67 4.79 15.64 3.94C16.55 3.14 17.71 2.7 18.89 2.7C21.7 2.7 23.98 5.09 23.98 8.04C23.98 9.66 23.11 10.97 22.28 12.02Z" />
	</g>
</svg>