<svg xmlns="http://www.w3.org/2000/svg" viewBox="0 0 24 24" width="24" height="24">
	<style>
		tspan { white-space:pre }
		.shp0 { opacity: 0.502;fill: #ffffff } 
	</style>
	<g id="fixed">
		<path id="loope-icon" class="shp0" d="M14.97 0.99C10.21 0.99 6.35 4.86 6.35 9.62C6.35 11.08 6.71 12.45 7.35 13.65L1.35 19.65L1.36 19.65C0.89 20.11 0.6 20.75 0.6 21.46C0.6 22.86 1.73 23.99 3.14 23.99C3.84 23.99 4.48 23.7 4.94 23.23L4.94 23.23L10.94 17.24C12.14 17.88 13.51 18.24 14.97 18.24C19.74 18.24 23.6 14.38 23.6 9.62C23.6 4.86 19.74 0.99 14.97 0.99ZM4.05 22.33C3.81 22.58 3.49 22.73 3.14 22.73C2.43 22.73 1.87 22.16 1.87 21.46C1.87 21.1 2.02 20.78 2.26 20.55L2.25 20.54L8.05 14.74C8.55 15.43 9.16 16.03 9.84 16.54L4.05 22.33ZM14.97 16.81C11.01 16.81 7.79 13.59 7.79 9.62C7.79 5.65 11.01 2.43 14.97 2.43C18.94 2.43 22.16 5.65 22.16 9.62C22.16 13.59 18.94 16.81 14.97 16.81ZM14.97 4.59C12.19 4.59 9.94 6.84 9.94 9.62C9.94 9.82 10.1 9.98 10.3 9.98C10.5 9.98 10.66 9.82 10.66 9.62C10.66 7.24 12.59 5.31 14.97 5.31C15.17 5.31 15.33 5.15 15.33 4.95C15.33 4.75 15.17 4.59 14.97 4.59Z" />
	</g>
</svg>