<svg xmlns="http://www.w3.org/2000/svg" viewBox="0 0 200 202" width="200" height="202">
	<style>
		tspan { white-space:pre }
		.shp0 { opacity: 0.078;fill: #000000 } 
	</style>
	<g id="sales">
		<path id="palm" class="shp0" d="M199.41 58.98C198.35 57.78 172.94 29.66 144.59 28.68C129.62 28.17 119.49 31.18 113.36 34.04C111.68 29.73 105.28 17.35 84.32 6.74C76.78 2.93 67.54 1 56.84 1C38.47 1 22.33 6.6 21.65 6.84C21.01 7.06 20.57 7.65 20.54 8.32C20.51 8.98 20.89 9.61 21.49 9.89C22.49 10.36 46.11 21.37 56.69 21.37C57.32 21.37 57.9 21.33 58.43 21.25C61.7 20.78 64.79 20.13 67.45 19.47L63.83 22.28C63.38 22.63 63.14 23.19 63.2 23.75C63.26 24.32 63.61 24.82 64.12 25.07L72.27 29.04C69.71 28.81 67.07 28.67 64.38 28.62L63.61 28.62C31.75 28.62 1.84 58.55 0.58 59.82C0.1 60.3 -0.03 61.01 0.23 61.63C0.5 62.25 1.04 62.69 1.78 62.63C3.17 62.61 35.99 62.06 45.08 55.91C48.54 53.57 51.67 51.09 54.21 48.93L51.44 54.56C51.18 55.07 51.21 55.67 51.52 56.16C51.82 56.64 52.35 56.94 52.92 56.94L69.83 56.94C70.4 56.94 70.94 56.64 71.23 56.15L73.35 52.73L73.14 54.61C73.05 55.43 73.58 56.19 74.38 56.39C74.61 56.45 80.08 57.82 87.54 57.82C87.59 57.82 87.65 57.82 87.7 57.82C76.24 64.18 66.17 73.36 57.36 83.95C57.35 83.96 57.3 83.98 57.29 83.98L57.31 84.01C44.11 99.89 33.75 119 25.95 136.9C25.91 136.94 25.86 136.97 25.85 136.98L25.89 137.04C12.92 166.85 6.94 193.23 6.44 195.47C6.28 196.19 6.63 196.94 7.28 197.29C11.92 199.75 17.07 201.01 22.59 201.01C31.9 201.01 38.99 197.45 39.29 197.3C39.83 197.02 40.18 196.47 40.19 195.86C41.72 122.2 94.04 63.96 100.5 57.04C105.74 70.36 117.12 78.94 117.62 79.31C118.28 79.8 119.21 79.74 119.79 79.15L121.13 77.81L119.79 81.6C119.59 82.14 119.7 82.74 120.06 83.19L130.68 96.28C131.04 96.72 131.59 96.94 132.17 96.88C132.74 96.81 133.23 96.45 133.47 95.93L136.13 90.24C136.03 93.57 136.06 97.56 136.41 101.72C137.32 112.61 157.52 138.42 158.38 139.5C158.79 140.02 159.48 140.26 160.13 140.08C160.78 139.89 161.25 139.33 161.33 138.67C161.54 136.87 166.16 94.2 145.58 69.6C140.18 63.16 134.52 57.83 128.66 53.7C132.2 53.51 134.49 53.05 134.62 53.02C135.42 52.86 135.99 52.13 135.94 51.31L135.89 50.53L137.17 52.85C137.45 53.36 137.96 53.68 138.54 53.71L153.38 54.46C153.41 54.46 153.44 54.46 153.47 54.46C153.48 54.46 153.49 54.46 153.49 54.46C154.42 54.46 155.16 53.72 155.16 52.81C155.16 52.46 155.05 52.14 154.87 51.88L153.19 47.95C155.19 49.81 157.59 51.88 160.22 53.86C167.98 59.7 196.85 61.64 198.06 61.72C198.75 61.74 199.37 61.4 199.66 60.8C199.96 60.2 199.86 59.48 199.41 58.98ZM43.77 109.61C48.47 101.64 53.7 93.93 59.46 86.85C60.49 86.46 62.9 85.74 65.14 86.7C67.16 87.58 68.67 89.71 69.67 92.96C65.67 99.5 61.63 106.74 57.82 114.58C53.87 110.17 48.21 109.25 43.77 109.61ZM41.53 113.5C44.31 112.88 51.92 111.91 56.13 118.13C53.28 124.23 50.59 130.68 48.16 137.42C41.5 132.51 35.16 133.07 30.95 134.46C34.1 127.51 37.62 120.44 41.53 113.5ZM18.15 167.04C21.1 165.7 31.86 161.47 40.03 166.87C39.19 171.22 38.5 175.64 37.98 180.13C27.97 176.6 18.78 178.43 14.08 179.88C15.21 176.09 16.57 171.76 18.15 167.04ZM19.67 162.65C22.2 155.42 25.27 147.43 28.85 139.18C31.3 137.69 38.78 134.24 46.93 140.91C44.51 148.03 42.41 155.48 40.76 163.19C33.23 158.97 24.58 160.9 19.67 162.65ZM22.6 197.69C18.08 197.69 13.84 196.76 9.99 194.93C10.43 193.09 11.39 189.24 12.88 184.01C15.42 183 26.13 179.36 37.6 183.75C37.26 187.38 37.01 191.04 36.91 194.75C34.83 195.63 29.29 197.69 22.6 197.69ZM72 89.21C70.68 86.43 68.86 84.49 66.53 83.49C65.3 82.96 64.08 82.76 62.93 82.74C72.39 72 83.21 63.08 95.5 57.64C90.81 62.96 81.68 73.96 72 89.21ZM162.22 51.22C155 45.79 149.49 39.52 149.43 39.46C148.9 38.85 147.99 38.71 147.3 39.15C146.61 39.58 146.34 40.45 146.66 41.2L150.89 51.02L139.64 50.46L135.28 42.51C134.9 41.84 134.11 41.51 133.37 41.72C132.62 41.93 132.12 42.63 132.17 43.4L132.54 50.01C130.71 50.26 127.29 50.61 123.18 50.41C122.4 50.36 121.73 50.86 121.5 51.59C121.28 52.32 121.59 53.1 122.25 53.49C129.44 57.72 136.44 63.85 143.02 71.72C159.01 90.82 158.96 122.58 158.35 134.02C151.67 125.09 140.31 108.6 139.71 101.44C138.86 91.2 140.01 81.77 140.02 81.68C140.12 80.87 139.61 80.11 138.83 79.89C138.68 79.84 138.52 79.82 138.38 79.82C137.74 79.82 137.15 80.18 136.87 80.77L131.58 92.12L123.22 81.81L126.7 71.99C126.95 71.25 126.68 70.45 126.02 70.03C125.36 69.63 124.51 69.72 123.97 70.26L118.48 75.74C115.36 73.12 106.51 64.94 102.85 53.79C102.57 52.95 101.68 52.47 100.81 52.72C99.8 53.01 98.69 53.28 97.33 53.55C97.11 53.6 96.91 53.69 96.73 53.81C96.52 53.76 96.32 53.76 96.1 53.8C93.39 54.26 90.5 54.5 87.53 54.5C82.65 54.5 78.61 53.86 76.59 53.47L77.42 45.78C77.5 45.01 77.04 44.29 76.31 44.04C75.57 43.8 74.77 44.08 74.36 44.74L68.88 53.61L55.58 53.61L61.12 42.37C61.48 41.65 61.25 40.76 60.59 40.3C59.92 39.83 59.01 39.92 58.44 40.5C58.37 40.57 51.74 47.39 43.22 53.16C37.25 57.2 17.24 58.76 6.07 59.19C14.54 51.6 38.88 31.9 63.6 31.9L64.32 31.91C70.99 32.02 77.27 32.72 83 34.02C83.76 34.19 84.54 33.81 84.86 33.1C85.17 32.45 85.01 31.7 84.51 31.21L88.05 25.6C88.46 24.95 88.37 24.09 87.82 23.55C87.27 23 86.41 22.91 85.76 23.32L78.09 28.17L67.96 23.24L76.43 16.68C77.08 16.18 77.26 15.29 76.87 14.57C76.47 13.86 75.61 13.54 74.85 13.82C74.77 13.85 66.91 16.68 57.96 17.96C57.57 18.02 57.14 18.04 56.68 18.04C49.3 18.04 34.11 11.82 26.88 8.66C32.82 7 44.42 4.27 56.82 4.27C67.01 4.27 75.75 6.09 82.8 9.66C106.65 21.73 110.61 36.23 110.64 36.37C110.67 36.46 110.74 36.66 110.78 36.75L110.87 36.97C111.05 37.39 111.4 37.72 111.83 37.88C112.26 38.04 112.75 38 113.16 37.79C118.69 34.9 128.76 31.4 144.46 31.95C165.95 32.7 186.41 50.69 193.9 58.05C184.06 57.17 167.15 54.94 162.22 51.22Z" />
	</g>
</svg>