<svg xmlns="http://www.w3.org/2000/svg" viewBox="0 0 62 60" width="62" height="60">
	<style>
		tspan { white-space:pre }
		.shp0 { fill: #84bc22 } 
	</style>
	<g id="services">
		<g id="easy">
			<path id="Triangular Arrows Sign For Recycle. Attribute as Freepik from Flaticon.com" class="shp0" d="M0.92 19.54L4.73 22.54L1.14 29.47C-0.66 32.67 2.43 35.78 4.4 36.87C6.33 37.93 9.34 38.06 12.15 38.02L17.2 29.7L21.02 31.78L14.39 19.42L0.92 19.54ZM1.48 36.5L9.68 51.75C11.32 53.87 14.43 54.37 17.65 54.29L26.3 54.29L26.3 39.85L9.9 39.74C7.35 39.89 4.02 39.35 1.48 36.5ZM53.05 8.4L48.59 10.31L44.31 3.79C42.41 0.65 38.21 1.86 36.31 3.07C34.45 4.26 32.88 6.84 31.55 9.33L36.33 17.81L32.67 20.17L46.62 20.33L53.05 8.4ZM38.04 0.67L20.82 0.5C18.18 0.92 16.24 3.42 14.75 6.29L10.56 13.9L23.1 20.9L31.15 6.52C32.25 4.21 34.33 1.53 38.04 0.67ZM38.79 59.51L39.3 54.66L47.04 54.05C50.68 53.89 51.67 49.61 51.54 47.36C51.41 45.14 49.93 42.5 48.41 40.13L38.72 40.22L38.45 35.86L31.55 48.07L38.79 59.51ZM52.78 50.04L61.28 34.96C62.19 32.43 60.97 29.51 59.2 26.81L54.62 19.42L42.45 27.07L51.05 41.13C52.52 43.23 53.84 46.36 52.78 50.04Z" />
		</g>
	</g>
</svg>