<svg xmlns="http://www.w3.org/2000/svg" viewBox="0 0 20 20" width="20" height="20">
	<style>
		tspan { white-space:pre }
		.shp0 { fill: #4f4e4c } 
	</style>
	<g id="Body">
		<g id="Search site">
			<g id="search">
				<path id="search-icon" class="shp0" d="M12.25 1C8.52 1 5.5 4.02 5.5 7.75C5.5 8.89 5.79 9.96 6.28 10.9L1.59 15.6L1.6 15.6C1.23 15.96 1 16.46 1 17.02C1 18.11 1.89 19 2.98 19C3.54 19 4.04 18.77 4.4 18.4L4.4 18.4L9.09 13.71C10.03 14.21 11.11 14.5 12.25 14.5C15.98 14.5 19 11.48 19 7.75C19 4.02 15.98 1 12.25 1ZM3.7 17.7C3.52 17.89 3.27 18.01 2.98 18.01C2.44 18.01 1.99 17.56 1.99 17.02C1.99 16.73 2.11 16.48 2.3 16.3L2.29 16.3L6.83 11.76C7.23 12.3 7.7 12.77 8.23 13.17L3.7 17.7ZM12.25 13.38C9.14 13.38 6.62 10.86 6.62 7.75C6.62 4.64 9.14 2.13 12.25 2.13C15.36 2.13 17.88 4.64 17.88 7.75C17.88 10.86 15.36 13.38 12.25 13.38ZM12.25 3.81C10.07 3.81 8.31 5.58 8.31 7.75C8.31 7.91 8.44 8.03 8.59 8.03C8.75 8.03 8.88 7.91 8.88 7.75C8.88 5.89 10.39 4.37 12.25 4.37C12.4 4.37 12.53 4.25 12.53 4.09C12.53 3.94 12.4 3.81 12.25 3.81Z" />
			</g>
		</g>
	</g>
</svg>