<svg xmlns="http://www.w3.org/2000/svg" viewBox="0 0 27 24" width="27" height="24">
	<style>
		tspan { white-space:pre }
		.shp0 { opacity: 0.502;fill: #ffffff } 
	</style>
	<g id="fixed">
		<path id="shopping-icon" class="shp0" d="M21.94 2.64L24.73 22.35L2.47 22.35L5.26 2.64L21.94 2.64M23.35 0.99L3.85 0.99L0.6 23.99L26.6 23.99L23.35 0.99L23.35 0.99ZM20.1 5.92C20.1 5.01 19.37 4.28 18.47 4.28C17.58 4.28 16.85 5.01 16.85 5.92C16.85 6.48 17.15 6.96 17.57 7.25C17.18 10.2 15.52 12.49 13.6 12.49C11.68 12.49 10.02 10.2 9.63 7.25C10.05 6.96 10.35 6.48 10.35 5.92C10.35 5.01 9.62 4.28 8.72 4.28C7.83 4.28 7.1 5.01 7.1 5.92C7.1 6.57 7.48 7.11 8.01 7.38C8.48 11.26 10.76 14.14 13.6 14.14C16.44 14.14 18.72 11.26 19.19 7.38C19.72 7.11 20.1 6.57 20.1 5.92Z" />
	</g>
</svg>