<svg xmlns="http://www.w3.org/2000/svg" viewBox="0 0 14 17" width="14" height="17">
	<style>
		tspan { white-space:pre }
		.shp0 { fill: #000000 } 
	</style>
	<g id="footer">
		<g id="Social icons" style="opacity: 0.302">
			<path id="social-p" class="shp0" d="M7.77 0.52C3.19 0.52 0.88 3.65 0.88 6.26C0.88 7.84 1.51 9.25 2.85 9.77C3.07 9.86 3.27 9.77 3.34 9.54C3.38 9.38 3.49 8.97 3.53 8.8C3.6 8.57 3.57 8.49 3.39 8.29C3.01 7.85 2.76 7.29 2.76 6.49C2.76 4.17 4.58 2.09 7.51 2.09C10.1 2.09 11.52 3.59 11.52 5.61C11.52 8.26 10.29 10.49 8.46 10.49C7.45 10.49 6.7 9.7 6.94 8.72C7.23 7.56 7.79 6.3 7.79 5.46C7.79 4.71 7.37 4.08 6.49 4.08C5.46 4.08 4.63 5.1 4.63 6.46C4.63 7.33 4.94 7.92 4.94 7.92C4.94 7.92 3.88 12.18 3.7 12.92C3.33 14.41 3.64 16.23 3.67 16.42C3.68 16.53 3.83 16.55 3.9 16.47C3.99 16.35 5.22 14.91 5.64 13.46C5.76 13.05 6.32 10.94 6.32 10.94C6.65 11.55 7.63 12.08 8.67 12.08C11.77 12.08 13.88 9.39 13.88 5.78C13.88 3.06 11.45 0.52 7.77 0.52Z" />
		</g>
	</g>
</svg>