<svg xmlns="http://www.w3.org/2000/svg" viewBox="0 0 17 14" width="17" height="14">
	<style>
		tspan { white-space:pre }
		.shp0 { fill: #000000 } 
	</style>
	<g id="footer">
		<g id="Social icons" style="opacity: 0.302">
			<path id="social-t" class="shp0" d="M16.88 2.06C16.29 2.32 15.66 2.49 14.99 2.57C15.67 2.17 16.19 1.52 16.43 0.76C15.8 1.13 15.1 1.41 14.35 1.55C13.75 0.92 12.9 0.52 11.95 0.52C10.14 0.52 8.67 1.99 8.67 3.8C8.67 4.06 8.7 4.31 8.76 4.55C6.03 4.41 3.61 3.1 1.99 1.12C1.7 1.6 1.54 2.17 1.54 2.77C1.54 3.91 2.12 4.91 3 5.5C2.47 5.48 1.96 5.33 1.52 5.09C1.52 5.1 1.52 5.12 1.52 5.13C1.52 6.72 2.65 8.05 4.15 8.35C3.87 8.42 3.58 8.46 3.29 8.46C3.07 8.46 2.87 8.44 2.67 8.4C3.09 9.71 4.3 10.66 5.73 10.68C4.61 11.56 3.2 12.09 1.66 12.09C1.39 12.09 1.13 12.07 0.87 12.04C2.33 12.97 4.05 13.52 5.91 13.52C11.95 13.52 15.25 8.52 15.25 4.18C15.25 4.04 15.24 3.9 15.24 3.75C15.88 3.29 16.44 2.71 16.88 2.06Z" />
		</g>
	</g>
</svg>