<svg xmlns="http://www.w3.org/2000/svg" viewBox="0 0 19 17" width="19" height="17">
	<style>
		tspan { white-space:pre }
		.shp0 { fill: #000000 } 
	</style>
	<g id="footer">
		<g id="Social icons" style="opacity: 0.302">
			<path id="social-g+" class="shp0" d="M18.5 7.01L15.79 7.01L15.79 4.33C15.79 4.12 15.62 3.96 15.41 3.96L14.64 3.96C14.43 3.96 14.26 4.12 14.26 4.33L14.26 7.01L11.55 7.01C11.34 7.01 11.17 7.18 11.17 7.39L11.17 8.15C11.17 8.36 11.34 8.52 11.55 8.52L14.26 8.52L14.26 11.21C14.26 11.41 14.43 11.58 14.64 11.58L15.41 11.58C15.62 11.58 15.79 11.41 15.79 11.21L15.79 8.52L18.5 8.52C18.71 8.52 18.88 8.36 18.88 8.15L18.88 7.39C18.88 7.18 18.71 7.01 18.5 7.01ZM9.38 9.37C8.81 8.97 8.29 8.38 8.28 8.2C8.28 7.87 8.31 7.72 9.06 7.14C10.02 6.4 10.55 5.42 10.55 4.38C10.55 3.44 10.26 2.61 9.76 2.03L10.15 2.03C10.23 2.03 10.3 2 10.37 1.96L11.43 1.19C11.57 1.1 11.62 0.93 11.57 0.78C11.52 0.62 11.38 0.52 11.22 0.52L6.44 0.52C5.92 0.52 5.39 0.61 4.87 0.79C3.13 1.38 1.91 2.85 1.91 4.35C1.91 6.49 3.58 8.1 5.81 8.16C5.77 8.32 5.75 8.49 5.75 8.65C5.75 8.98 5.83 9.29 6.01 9.6C5.99 9.6 5.97 9.6 5.94 9.6C3.82 9.6 1.89 10.63 1.16 12.17C0.97 12.57 0.88 12.97 0.88 13.37C0.88 13.76 0.98 14.13 1.18 14.48C1.63 15.3 2.62 15.93 3.95 16.26C4.64 16.43 5.37 16.52 6.14 16.52C6.83 16.52 7.49 16.43 8.09 16.26C9.99 15.71 11.21 14.33 11.21 12.74C11.21 11.21 10.71 10.3 9.38 9.37ZM3.35 12.86C3.35 11.75 4.78 10.78 6.4 10.78L6.45 10.78C6.8 10.78 7.14 10.83 7.47 10.93C7.58 11.01 7.69 11.08 7.79 11.15C8.55 11.66 9.04 11.99 9.18 12.53C9.21 12.67 9.23 12.8 9.23 12.93C9.23 14.32 8.19 15.02 6.13 15.02C4.57 15.02 3.35 14.07 3.35 12.86ZM4.83 2.37C5.08 2.08 5.42 1.93 5.79 1.93L5.83 1.93C6.89 1.96 7.9 3.12 8.08 4.52C8.19 5.31 8.01 6.05 7.61 6.49C7.36 6.78 7.03 6.93 6.64 6.93C6.64 6.93 6.64 6.93 6.64 6.93L6.62 6.93C5.59 6.9 4.56 5.69 4.37 4.3C4.27 3.51 4.44 2.81 4.83 2.37Z" />
		</g>
	</g>
</svg>