<svg xmlns="http://www.w3.org/2000/svg" viewBox="0 0 24 24" width="24" height="24">
	<style>
		tspan { white-space:pre }
		.shp0 { opacity: 0.502;fill: #ffffff } 
	</style>
	<g id="fixed">
		<path id="user-icon" class="shp0" d="M12.1 16.81C15.67 16.81 18.57 13.26 18.57 8.9C18.57 4.54 15.67 0.99 12.1 0.99C10.34 0.99 8.7 1.84 7.47 3.37C6.28 4.85 5.63 6.82 5.63 8.9C5.63 13.26 8.53 16.81 12.1 16.81ZM12.1 2.43C14.87 2.43 17.13 5.33 17.13 8.9C17.13 12.47 14.87 15.37 12.1 15.37C9.33 15.37 7.07 12.47 7.07 8.9C7.07 5.33 9.32 2.43 12.1 2.43ZM17.13 15.37C16.73 15.37 16.41 15.69 16.41 16.09C16.41 16.49 16.73 16.81 17.13 16.81C19.9 16.81 22.16 19.06 22.16 21.84C22.16 22.23 21.84 22.56 21.44 22.56L2.76 22.56C2.36 22.56 2.04 22.23 2.04 21.84C2.04 19.06 4.29 16.81 7.07 16.81C7.47 16.81 7.79 16.49 7.79 16.09C7.79 15.69 7.47 15.37 7.07 15.37C3.5 15.37 0.6 18.27 0.6 21.84C0.6 23.03 1.57 23.99 2.76 23.99L21.44 23.99C22.63 23.99 23.6 23.03 23.6 21.84C23.6 18.27 20.7 15.37 17.13 15.37Z" />
	</g>
</svg>